<svg id="visual" viewBox="0 0 900 600" width="900" height="600" xmlns="http://www.w3.org/2000/svg" xmlns:xlink="http://www.w3.org/1999/xlink" version="1.1"><rect x="0" y="0" width="900" height="600" fill="#EDF2F6"></rect><path d="M0 372L21.5 373C43 374 86 376 128.8 377.7C171.7 379.3 214.3 380.7 257.2 389.2C300 397.7 343 413.3 385.8 422.2C428.7 431 471.3 433 514.2 435C557 437 600 439 642.8 438.5C685.7 438 728.3 435 771.2 433C814 431 857 430 878.5 429.5L900 429L900 601L878.5 601C857 601 814 601 771.2 601C728.3 601 685.7 601 642.8 601C600 601 557 601 514.2 601C471.3 601 428.7 601 385.8 601C343 601 300 601 257.2 601C214.3 601 171.7 601 128.8 601C86 601 43 601 21.5 601L0 601Z" fill="#d5d2ff"></path><path d="M0 432L21.5 437.8C43 443.7 86 455.3 128.8 458.7C171.7 462 214.3 457 257.2 448C300 439 343 426 385.8 424.2C428.7 422.3 471.3 431.7 514.2 439.5C557 447.3 600 453.7 642.8 446.8C685.7 440 728.3 420 771.2 412.2C814 404.3 857 408.7 878.5 410.8L900 413L900 601L878.5 601C857 601 814 601 771.2 601C728.3 601 685.7 601 642.8 601C600 601 557 601 514.2 601C471.3 601 428.7 601 385.8 601C343 601 300 601 257.2 601C214.3 601 171.7 601 128.8 601C86 601 43 601 21.5 601L0 601Z" fill="#bcb6ff"></path><path d="M0 511L21.5 502.8C43 494.7 86 478.3 128.8 475.8C171.7 473.3 214.3 484.7 257.2 481.8C300 479 343 462 385.8 456C428.7 450 471.3 455 514.2 462.5C557 470 600 480 642.8 480.7C685.7 481.3 728.3 472.7 771.2 468.5C814 464.3 857 464.7 878.5 464.8L900 465L900 601L878.5 601C857 601 814 601 771.2 601C728.3 601 685.7 601 642.8 601C600 601 557 601 514.2 601C471.3 601 428.7 601 385.8 601C343 601 300 601 257.2 601C214.3 601 171.7 601 128.8 601C86 601 43 601 21.5 601L0 601Z" fill="#a29bff"></path><path d="M0 514L21.5 514.8C43 515.7 86 517.3 128.8 515.2C171.7 513 214.3 507 257.2 506C300 505 343 509 385.8 507.2C428.7 505.3 471.3 497.7 514.2 492.8C557 488 600 486 642.8 493C685.7 500 728.3 516 771.2 517.3C814 518.7 857 505.3 878.5 498.7L900 492L900 601L878.5 601C857 601 814 601 771.2 601C728.3 601 685.7 601 642.8 601C600 601 557 601 514.2 601C471.3 601 428.7 601 385.8 601C343 601 300 601 257.2 601C214.3 601 171.7 601 128.8 601C86 601 43 601 21.5 601L0 601Z" fill="#887fff"></path><path d="M0 530L21.5 536.8C43 543.7 86 557.3 128.8 560.5C171.7 563.7 214.3 556.3 257.2 549.5C300 542.7 343 536.3 385.8 538C428.7 539.7 471.3 549.3 514.2 551C557 552.7 600 546.3 642.8 547.8C685.7 549.3 728.3 558.7 771.2 557C814 555.3 857 542.7 878.5 536.3L900 530L900 601L878.5 601C857 601 814 601 771.2 601C728.3 601 685.7 601 642.8 601C600 601 557 601 514.2 601C471.3 601 428.7 601 385.8 601C343 601 300 601 257.2 601C214.3 601 171.7 601 128.8 601C86 601 43 601 21.5 601L0 601Z" fill="#6b63ff"></path></svg>